<svg xmlns="http://www.w3.org/2000/svg" fill="none" viewBox="0 0 128 128">
  <path d="M50.4 78.5a75.1 75.1 0 0 0-28.5 6.9l24.2-65.7c.7-2 1.9-3.2 3.4-3.2h29c1.5 0 2.7 1.2 3.4 3.2l24.2 65.7s-13.5-6.9-28.5-6.9l-11.4-35.6c-.1-.5-.3-.8-.7-.8-.4 0-.6.3-.7.8L50.4 78.5Z" fill="url(#a)"/>
  <path d="M50.4 78.5a75.1 75.1 0 0 1 13.6-1.3c4.8 0 9.3.5 13.6 1.3l-11.4-35.6c-.1-.5-.3-.8-.7-.8-.4 0-.6.3-.7.8L50.4 78.5Z" fill="url(#b)"/>
  <defs>
    <linearGradient id="a" x1="34" x2="98.7" y1="15.6" y2="100.2" gradientUnits="userSpaceOnUse">
      <stop stop-color="#000014"/>
      <stop offset="1" stop-color="#150426"/>
    </linearGradient>
    <linearGradient id="b" x1="63.9" x2="63.9" y1="42.9" y2="78.5" gradientUnits="userSpaceOnUse">
      <stop stop-color="#FF1639"/>
      <stop offset="1" stop-color="#FF1639" stop-opacity="0"/>
    </linearGradient>
  </defs>
</svg>
